<svg xmlns="http://www.w3.org/2000/svg" width="30" height="30" viewBox="0 0 30 30" fill="none">
  <g>
    <ellipse cx="15" cy="19" rx="6.2" ry="5.2" fill="#C08BFF"/>
    <ellipse cx="8.6" cy="10.7" rx="2.3" ry="3.2" fill="#C08BFF"/>
    <ellipse cx="13.1" cy="7.8" rx="2.3" ry="3.3" fill="#C08BFF"/>
    <ellipse cx="17.9" cy="7.8" rx="2.3" ry="3.3" fill="#C08BFF"/>
    <ellipse cx="22.4" cy="10.7" rx="2.3" ry="3.2" fill="#C08BFF"/>
    <path d="M11 17.7c1-1.6 2.4-2.5 4-2.5s3 .9 4 2.5c.5.9.6 2 .2 2.9-.7 1.8-2.3 3-4.2 3s-3.5-1.2-4.2-3c-.4-.9-.3-2 .2-2.9Z" fill="#A56BFF"/>
    <circle cx="24.6" cy="23.6" r="3.2" fill="#ffffff"/>
    <path d="M24.6 21.5v4.2M22.5 23.6h4.2" stroke="#6B46C1" stroke-width="1.6" stroke-linecap="round"/>
  </g>
</svg>